<?xml version="1.0" encoding="UTF-8" standalone="no"?>
<!DOCTYPE svg PUBLIC "-//W3C//DTD SVG 1.1//EN"
 "http://www.w3.org/Graphics/SVG/1.1/DTD/svg11.dtd">
<!-- Generated by graphviz version 2.36.0 (20140111.2315)
 -->
<!-- Title: G Pages: 1 -->
<svg width="1041pt" height="186pt"
 viewBox="0.00 0.00 1041.20 186.20" xmlns="http://www.w3.org/2000/svg" xmlns:xlink="http://www.w3.org/1999/xlink">
<g id="graph0" class="graph" transform="scale(1 1) rotate(0) translate(21.6 164.6)">
<title>G</title>
<polygon fill="#111111" stroke="none" points="-21.6,21.6 -21.6,-164.6 1019.6,-164.6 1019.6,21.6 -21.6,21.6"/>
<!-- index.js -->
<g id="node1" class="node"><title>index.js</title>
<path fill="none" stroke="#c6c5fe" d="M56.3333,-83.5C56.3333,-83.5 7.66667,-83.5 7.66667,-83.5 3.83333,-83.5 0,-79.6667 0,-75.8333 0,-75.8333 0,-68.1667 0,-68.1667 0,-64.3333 3.83333,-60.5 7.66667,-60.5 7.66667,-60.5 56.3333,-60.5 56.3333,-60.5 60.1667,-60.5 64,-64.3333 64,-68.1667 64,-68.1667 64,-75.8333 64,-75.8333 64,-79.6667 60.1667,-83.5 56.3333,-83.5"/>
<text text-anchor="middle" x="32" y="-68.3" font-family="Arial" font-size="14.00" fill="#c6c5fe">index.js</text>
</g>
<!-- lib/index.js -->
<g id="node2" class="node"><title>lib/index.js</title>
<path fill="none" stroke="#c6c5fe" d="M174.333,-83.5C174.333,-83.5 107.667,-83.5 107.667,-83.5 103.833,-83.5 100,-79.6667 100,-75.8333 100,-75.8333 100,-68.1667 100,-68.1667 100,-64.3333 103.833,-60.5 107.667,-60.5 107.667,-60.5 174.333,-60.5 174.333,-60.5 178.167,-60.5 182,-64.3333 182,-68.1667 182,-68.1667 182,-75.8333 182,-75.8333 182,-79.6667 178.167,-83.5 174.333,-83.5"/>
<text text-anchor="middle" x="141" y="-68.3" font-family="Arial" font-size="14.00" fill="#c6c5fe">lib/index.js</text>
</g>
<!-- index.js&#45;&gt;lib/index.js -->
<g id="edge1" class="edge"><title>index.js&#45;&gt;lib/index.js</title>
<path fill="none" stroke="#757575" d="M64.2365,-72C72.2169,-72 81.0018,-72 89.675,-72"/>
<polygon fill="#757575" stroke="#757575" points="89.7504,-75.5001 99.7504,-72 89.7503,-68.5001 89.7504,-75.5001"/>
</g>
<!-- lib/alphabet.js -->
<g id="node3" class="node"><title>lib/alphabet.js</title>
<path fill="none" stroke="#c6c5fe" d="M700.333,-84.5C700.333,-84.5 613.667,-84.5 613.667,-84.5 609.833,-84.5 606,-80.6667 606,-76.8333 606,-76.8333 606,-69.1667 606,-69.1667 606,-65.3333 609.833,-61.5 613.667,-61.5 613.667,-61.5 700.333,-61.5 700.333,-61.5 704.167,-61.5 708,-65.3333 708,-69.1667 708,-69.1667 708,-76.8333 708,-76.8333 708,-80.6667 704.167,-84.5 700.333,-84.5"/>
<text text-anchor="middle" x="657" y="-69.3" font-family="Arial" font-size="14.00" fill="#c6c5fe">lib/alphabet.js</text>
</g>
<!-- lib/index.js&#45;&gt;lib/alphabet.js -->
<g id="edge7" class="edge"><title>lib/index.js&#45;&gt;lib/alphabet.js</title>
<path fill="none" stroke="#757575" d="M182.143,-73.0031C252.846,-74.6376 404.203,-77.5457 532,-76 552.815,-75.7482 575.591,-75.2589 595.879,-74.7472"/>
<polygon fill="#757575" stroke="#757575" points="596.022,-78.2448 605.928,-74.487 595.841,-71.2471 596.022,-78.2448"/>
</g>
<!-- lib/build.js -->
<g id="node5" class="node"><title>lib/build.js</title>
<path fill="none" stroke="#c6c5fe" d="M336.333,-63.5C336.333,-63.5 273.667,-63.5 273.667,-63.5 269.833,-63.5 266,-59.6667 266,-55.8333 266,-55.8333 266,-48.1667 266,-48.1667 266,-44.3333 269.833,-40.5 273.667,-40.5 273.667,-40.5 336.333,-40.5 336.333,-40.5 340.167,-40.5 344,-44.3333 344,-48.1667 344,-48.1667 344,-55.8333 344,-55.8333 344,-59.6667 340.167,-63.5 336.333,-63.5"/>
<text text-anchor="middle" x="305" y="-48.3" font-family="Arial" font-size="14.00" fill="#c6c5fe">lib/build.js</text>
</g>
<!-- lib/index.js&#45;&gt;lib/build.js -->
<g id="edge8" class="edge"><title>lib/index.js&#45;&gt;lib/build.js</title>
<path fill="none" stroke="#757575" d="M182.045,-67.0562C204.327,-64.3053 232.22,-60.8617 255.705,-57.9624"/>
<polygon fill="#757575" stroke="#757575" points="256.313,-61.414 265.809,-56.715 255.455,-54.4667 256.313,-61.414"/>
</g>
<!-- lib/is&#45;valid.js -->
<g id="node8" class="node"><title>lib/is&#45;valid.js</title>
<path fill="none" stroke="#c6c5fe" d="M518.333,-143.5C518.333,-143.5 441.667,-143.5 441.667,-143.5 437.833,-143.5 434,-139.667 434,-135.833 434,-135.833 434,-128.167 434,-128.167 434,-124.333 437.833,-120.5 441.667,-120.5 441.667,-120.5 518.333,-120.5 518.333,-120.5 522.167,-120.5 526,-124.333 526,-128.167 526,-128.167 526,-135.833 526,-135.833 526,-139.667 522.167,-143.5 518.333,-143.5"/>
<text text-anchor="middle" x="480" y="-128.3" font-family="Arial" font-size="14.00" fill="#c6c5fe">lib/is&#45;valid.js</text>
</g>
<!-- lib/index.js&#45;&gt;lib/is&#45;valid.js -->
<g id="edge9" class="edge"><title>lib/index.js&#45;&gt;lib/is&#45;valid.js</title>
<path fill="none" stroke="#757575" d="M162.626,-83.4122C177.547,-91.1173 198.444,-100.798 218,-106 287.31,-124.436 370.128,-130.029 423.599,-131.603"/>
<polygon fill="#757575" stroke="#757575" points="423.802,-135.109 433.889,-131.867 423.982,-128.111 423.802,-135.109"/>
</g>
<!-- lib/util/cluster&#45;worker&#45;id.js -->
<g id="node9" class="node"><title>lib/util/cluster&#45;worker&#45;id.js</title>
<path fill="none" stroke="#cfffac" d="M384.333,-22.5C384.333,-22.5 225.667,-22.5 225.667,-22.5 221.833,-22.5 218,-18.6667 218,-14.8333 218,-14.8333 218,-7.16667 218,-7.16667 218,-3.33333 221.833,0.5 225.667,0.5 225.667,0.5 384.333,0.5 384.333,0.5 388.167,0.5 392,-3.33333 392,-7.16667 392,-7.16667 392,-14.8333 392,-14.8333 392,-18.6667 388.167,-22.5 384.333,-22.5"/>
<text text-anchor="middle" x="305" y="-7.3" font-family="Arial" font-size="14.00" fill="#cfffac">lib/util/cluster&#45;worker&#45;id.js</text>
</g>
<!-- lib/index.js&#45;&gt;lib/util/cluster&#45;worker&#45;id.js -->
<g id="edge10" class="edge"><title>lib/index.js&#45;&gt;lib/util/cluster&#45;worker&#45;id.js</title>
<path fill="none" stroke="#757575" d="M160.453,-60.6419C175.486,-51.7989 197.502,-39.762 218,-32 224.719,-29.4555 231.853,-27.14 239.025,-25.0547"/>
<polygon fill="#757575" stroke="#757575" points="240.088,-28.3923 248.793,-22.354 238.222,-21.6454 240.088,-28.3923"/>
</g>
<!-- lib/random/random&#45;from&#45;seed.js -->
<g id="node4" class="node"><title>lib/random/random&#45;from&#45;seed.js</title>
<path fill="none" stroke="#cfffac" d="M989.833,-84.5C989.833,-84.5 790.167,-84.5 790.167,-84.5 786.333,-84.5 782.5,-80.6667 782.5,-76.8333 782.5,-76.8333 782.5,-69.1667 782.5,-69.1667 782.5,-65.3333 786.333,-61.5 790.167,-61.5 790.167,-61.5 989.833,-61.5 989.833,-61.5 993.667,-61.5 997.5,-65.3333 997.5,-69.1667 997.5,-69.1667 997.5,-76.8333 997.5,-76.8333 997.5,-80.6667 993.667,-84.5 989.833,-84.5"/>
<text text-anchor="middle" x="890" y="-69.3" font-family="Arial" font-size="14.00" fill="#cfffac">lib/random/random&#45;from&#45;seed.js</text>
</g>
<!-- lib/alphabet.js&#45;&gt;lib/random/random&#45;from&#45;seed.js -->
<g id="edge2" class="edge"><title>lib/alphabet.js&#45;&gt;lib/random/random&#45;from&#45;seed.js</title>
<path fill="none" stroke="#757575" d="M708.124,-73C726.995,-73 749.338,-73 771.769,-73"/>
<polygon fill="#757575" stroke="#757575" points="772.069,-76.5001 782.069,-73 772.069,-69.5001 772.069,-76.5001"/>
</g>
<!-- lib/build.js&#45;&gt;lib/alphabet.js -->
<g id="edge3" class="edge"><title>lib/build.js&#45;&gt;lib/alphabet.js</title>
<path fill="none" stroke="#757575" d="M344.122,-54.2873C404.661,-57.9197 523.303,-65.0382 595.531,-69.3719"/>
<polygon fill="#757575" stroke="#757575" points="595.647,-72.885 605.838,-69.9903 596.066,-65.8976 595.647,-72.885"/>
</g>
<!-- lib/generate.js -->
<g id="node6" class="node"><title>lib/generate.js</title>
<path fill="none" stroke="#c6c5fe" d="M524.333,-25.5C524.333,-25.5 435.667,-25.5 435.667,-25.5 431.833,-25.5 428,-21.6667 428,-17.8333 428,-17.8333 428,-10.1667 428,-10.1667 428,-6.33333 431.833,-2.5 435.667,-2.5 435.667,-2.5 524.333,-2.5 524.333,-2.5 528.167,-2.5 532,-6.33333 532,-10.1667 532,-10.1667 532,-17.8333 532,-17.8333 532,-21.6667 528.167,-25.5 524.333,-25.5"/>
<text text-anchor="middle" x="480" y="-10.3" font-family="Arial" font-size="14.00" fill="#c6c5fe">lib/generate.js</text>
</g>
<!-- lib/build.js&#45;&gt;lib/generate.js -->
<g id="edge4" class="edge"><title>lib/build.js&#45;&gt;lib/generate.js</title>
<path fill="none" stroke="#757575" d="M344.394,-43.5666C366.005,-38.8198 393.488,-32.7829 417.98,-27.4032"/>
<polygon fill="#757575" stroke="#757575" points="418.893,-30.7861 427.91,-25.2222 417.392,-23.9491 418.893,-30.7861"/>
</g>
<!-- lib/generate.js&#45;&gt;lib/alphabet.js -->
<g id="edge5" class="edge"><title>lib/generate.js&#45;&gt;lib/alphabet.js</title>
<path fill="none" stroke="#757575" d="M514.742,-25.3758C542.583,-34.7623 582.28,-48.1457 612.505,-58.3361"/>
<polygon fill="#757575" stroke="#757575" points="611.768,-61.7809 622.362,-61.6591 614.004,-55.1477 611.768,-61.7809"/>
</g>
<!-- lib/random/random&#45;byte.js -->
<g id="node7" class="node"><title>lib/random/random&#45;byte.js</title>
<path fill="none" stroke="#cfffac" d="M738.333,-25.5C738.333,-25.5 575.667,-25.5 575.667,-25.5 571.833,-25.5 568,-21.6667 568,-17.8333 568,-17.8333 568,-10.1667 568,-10.1667 568,-6.33333 571.833,-2.5 575.667,-2.5 575.667,-2.5 738.333,-2.5 738.333,-2.5 742.167,-2.5 746,-6.33333 746,-10.1667 746,-10.1667 746,-17.8333 746,-17.8333 746,-21.6667 742.167,-25.5 738.333,-25.5"/>
<text text-anchor="middle" x="657" y="-10.3" font-family="Arial" font-size="14.00" fill="#cfffac">lib/random/random&#45;byte.js</text>
</g>
<!-- lib/generate.js&#45;&gt;lib/random/random&#45;byte.js -->
<g id="edge6" class="edge"><title>lib/generate.js&#45;&gt;lib/random/random&#45;byte.js</title>
<path fill="none" stroke="#757575" d="M532.088,-14C540.297,-14 549.027,-14 557.905,-14"/>
<polygon fill="#757575" stroke="#757575" points="557.971,-17.5001 567.971,-14 557.971,-10.5001 557.971,-17.5001"/>
</g>
<!-- lib/is&#45;valid.js&#45;&gt;lib/alphabet.js -->
<g id="edge11" class="edge"><title>lib/is&#45;valid.js&#45;&gt;lib/alphabet.js</title>
<path fill="none" stroke="#757575" d="M514.742,-120.624C542.583,-111.238 582.28,-97.8543 612.505,-87.6639"/>
<polygon fill="#757575" stroke="#757575" points="614.004,-90.8523 622.362,-84.3409 611.768,-84.2191 614.004,-90.8523"/>
</g>
</g>
</svg>
